<svg width="27" height="27" viewBox="0 0 27 27" fill="none" xmlns="http://www.w3.org/2000/svg">
<path d="M0.78163 9.88309L12.4097 0.950671C13.1371 0.39188 14.1514 0.399555 14.8703 0.969291L26.2422 9.98187C26.7209 10.3612 27 10.9385 27 11.5493V25C27 26.1046 26.1046 27 25 27H18.7891C17.6845 27 16.7891 26.1046 16.7891 25V20.4945C16.7891 19.3899 15.8937 18.4945 14.7891 18.4945H12.2109C11.1063 18.4945 10.2109 19.3899 10.2109 20.4945V25C10.2109 26.1046 9.31548 27 8.21091 27H2C0.89543 27 0 26.1046 0 25V11.4691C0 10.8477 0.28884 10.2616 0.78163 9.88309Z" fill="black"/>
</svg>
