<svg width="27" height="28" viewBox="0 0 27 28" fill="none" xmlns="http://www.w3.org/2000/svg">
<path d="M9.00192 8.375C9.01555 5.92809 9.12405 4.60294 9.98848 3.73851C10.977 2.75 12.5679 2.75 15.75 2.75H16.875C20.0569 2.75 21.6479 2.75 22.6365 3.73851C23.625 4.72703 23.625 6.31802 23.625 9.5V18.5C23.625 21.6819 23.625 23.2729 22.6365 24.2615C21.6479 25.25 20.0569 25.25 16.875 25.25H15.75C12.5679 25.25 10.977 25.25 9.98848 24.2615C9.12405 23.397 9.01555 22.0719 9.00192 19.625" stroke="#222222" stroke-width="2" stroke-linecap="round"/>
<path opacity="0.5" d="M9 22.4375C6.34835 22.4375 5.02253 22.4375 4.19876 21.6138C3.375 20.7899 3.375 19.4641 3.375 16.8125V11.1875C3.375 8.53585 3.375 7.21003 4.19876 6.38626C5.02253 5.5625 6.34835 5.5625 9 5.5625" stroke="#222222" stroke-width="2"/>
<path d="M16.875 14H6.75M6.75 14L9 16.25M6.75 14L9 11.75" stroke="#222222" stroke-width="2" stroke-linecap="round" stroke-linejoin="round"/>
</svg>
