<svg width="27" height="28" viewBox="0 0 27 28" fill="none" xmlns="http://www.w3.org/2000/svg">
<g clip-path="url(#clip0_472_276)">
<mask id="mask0_472_276" style="mask-type:luminance" maskUnits="userSpaceOnUse" x="0" y="0" width="27" height="28">
<path d="M0 0.5H27V27.5H0V0.5Z" fill="white"/>
</mask>
<g mask="url(#mask0_472_276)">
<path d="M13.5 0.5C13.7984 0.5 14.0845 0.618526 14.2955 0.829505C14.5065 1.04048 14.625 1.32663 14.625 1.625V6.125C14.625 6.42337 14.5065 6.70952 14.2955 6.9205C14.0845 7.13147 13.7984 7.25 13.5 7.25C13.2016 7.25 12.9155 7.13147 12.7045 6.9205C12.4935 6.70952 12.375 6.42337 12.375 6.125V1.625C12.375 1.32663 12.4935 1.04048 12.7045 0.829505C12.9155 0.618526 13.2016 0.5 13.5 0.5ZM5.54513 4.45438C5.33295 4.24945 5.04877 4.13605 4.7538 4.13862C4.45883 4.14118 4.17666 4.2595 3.96808 4.46808C3.7595 4.67666 3.64118 4.95883 3.63862 5.2538C3.63605 5.54877 3.74945 5.83295 3.95438 6.04513L7.13587 9.22663C7.34805 9.43155 7.63223 9.54495 7.9272 9.54238C8.22217 9.53982 8.50434 9.4215 8.71292 9.21292C8.9215 9.00434 9.03982 8.72217 9.04238 8.4272C9.04495 8.13223 8.93155 7.84805 8.72663 7.63587L5.54513 4.45438ZM1.125 12.875C0.826631 12.875 0.540483 12.9935 0.329505 13.2045C0.118526 13.4155 0 13.7016 0 14C0 14.2984 0.118526 14.5845 0.329505 14.7955C0.540483 15.0065 0.826631 15.125 1.125 15.125H5.625C5.92337 15.125 6.20952 15.0065 6.4205 14.7955C6.63147 14.5845 6.75 14.2984 6.75 14C6.75 13.7016 6.63147 13.4155 6.4205 13.2045C6.20952 12.9935 5.92337 12.875 5.625 12.875H1.125ZM20.25 14C20.25 13.7016 20.3685 13.4155 20.5795 13.2045C20.7905 12.9935 21.0766 12.875 21.375 12.875H25.875C26.1734 12.875 26.4595 12.9935 26.6705 13.2045C26.8815 13.4155 27 13.7016 27 14C27 14.2984 26.8815 14.5845 26.6705 14.7955C26.4595 15.0065 26.1734 15.125 25.875 15.125H21.375C21.0766 15.125 20.7905 15.0065 20.5795 14.7955C20.3685 14.5845 20.25 14.2984 20.25 14ZM19.8641 18.7734C19.6519 18.5684 19.3678 18.4551 19.0728 18.4576C18.7778 18.4602 18.4957 18.5785 18.2871 18.7871C18.0785 18.9957 17.9602 19.2778 17.9576 19.5728C17.9551 19.8678 18.0684 20.1519 18.2734 20.3641L21.4549 23.5456C21.5587 23.6531 21.6828 23.7388 21.82 23.7977C21.9573 23.8567 22.1049 23.8877 22.2543 23.889C22.4037 23.8903 22.5518 23.8619 22.6901 23.8053C22.8283 23.7487 22.9539 23.6652 23.0596 23.5596C23.1652 23.4539 23.2487 23.3283 23.3053 23.1901C23.3619 23.0518 23.3903 22.9037 23.389 22.7543C23.3877 22.6049 23.3567 22.4573 23.2977 22.32C23.2388 22.1828 23.1531 22.0587 23.0456 21.9549L19.8641 18.7734ZM8.72663 20.3641C8.83407 20.2603 8.91978 20.1362 8.97874 19.999C9.0377 19.8617 9.06873 19.7141 9.07003 19.5647C9.07133 19.4153 9.04286 19.2672 8.9863 19.1289C8.92973 18.9907 8.8462 18.8651 8.74057 18.7594C8.63494 18.6538 8.50933 18.5703 8.37107 18.5137C8.23281 18.4571 8.08468 18.4287 7.9353 18.43C7.78592 18.4313 7.6383 18.4623 7.50104 18.5213C7.36379 18.5802 7.23965 18.6659 7.13587 18.7734L3.95438 21.9538C3.84693 22.0575 3.76122 22.1817 3.70226 22.3189C3.6433 22.4562 3.61227 22.6038 3.61097 22.7532C3.60967 22.9026 3.63813 23.0507 3.6947 23.1889C3.75127 23.3272 3.8348 23.4528 3.94043 23.5584C4.04606 23.6641 4.17167 23.7476 4.30993 23.8042C4.44819 23.8607 4.59632 23.8892 4.7457 23.8879C4.89508 23.8866 5.0427 23.8556 5.17996 23.7966C5.31721 23.7377 5.44135 23.6519 5.54513 23.5445L8.72663 20.3641ZM23.0456 6.04513C23.2506 5.83295 23.3639 5.54877 23.3614 5.2538C23.3588 4.95883 23.2405 4.67666 23.0319 4.46808C22.8233 4.2595 22.5412 4.14118 22.2462 4.13862C21.9512 4.13605 21.6671 4.24945 21.4549 4.45438L18.2734 7.63587C18.1659 7.73965 18.0802 7.86379 18.0213 8.00104C17.9623 8.1383 17.9313 8.28592 17.93 8.4353C17.9287 8.58468 17.9571 8.73281 18.0137 8.87107C18.0703 9.00933 18.1538 9.13494 18.2594 9.24057C18.3651 9.3462 18.4907 9.42973 18.6289 9.4863C18.7672 9.54286 18.9153 9.57133 19.0647 9.57003C19.2141 9.56873 19.3617 9.5377 19.499 9.47874C19.6362 9.41978 19.7603 9.33407 19.8641 9.22663L23.0456 6.04513ZM14.625 21.875C14.625 21.5766 14.5065 21.2905 14.2955 21.0795C14.0845 20.8685 13.7984 20.75 13.5 20.75C13.2016 20.75 12.9155 20.8685 12.7045 21.0795C12.4935 21.2905 12.375 21.5766 12.375 21.875V26.375C12.375 26.6734 12.4935 26.9595 12.7045 27.1705C12.9155 27.3815 13.2016 27.5 13.5 27.5C13.7984 27.5 14.0845 27.3815 14.2955 27.1705C14.5065 26.9595 14.625 26.6734 14.625 26.375V21.875ZM13.5 8.375C12.0082 8.375 10.5774 8.96763 9.52252 10.0225C8.46763 11.0774 7.875 12.5082 7.875 14C7.875 15.4918 8.46763 16.9226 9.52252 17.9775C10.5774 19.0324 12.0082 19.625 13.5 19.625C14.9918 19.625 16.4226 19.0324 17.4775 17.9775C18.5324 16.9226 19.125 15.4918 19.125 14C19.125 12.5082 18.5324 11.0774 17.4775 10.0225C16.4226 8.96763 14.9918 8.375 13.5 8.375Z" fill="black"/>
</g>
</g>
<defs>
<clipPath id="clip0_472_276">
<rect width="27" height="27" fill="white" transform="translate(0 0.5)"/>
</clipPath>
</defs>
</svg>
