<svg width="27" height="28" viewBox="0 0 27 28" fill="none" xmlns="http://www.w3.org/2000/svg">
<g clip-path="url(#clip0_284_581)">
<path d="M13.5 27.5C20.925 27.5 27 21.425 27 14C27 6.575 20.925 0.5 13.5 0.5C6.075 0.5 0 6.575 0 14C0 21.425 6.075 27.5 13.5 27.5ZM16.3125 19.625C15.6375 23.1125 14.4 25.25 13.5 25.25C12.6 25.25 11.3625 23.1125 10.6875 19.625H16.3125ZM8.325 19.625C8.6625 21.5375 9.225 23.3375 9.9 24.6875C7.3125 23.7875 5.0625 21.9875 3.7125 19.625H8.325ZM23.2875 19.625C21.9375 21.9875 19.6875 23.7875 17.1 24.6875C17.775 23.3375 18.3375 21.5375 18.675 19.625H23.2875ZM7.9875 17.375H2.7C2.475 16.3625 2.25 15.125 2.25 14C2.25 12.875 2.475 11.6375 2.8125 10.625H8.1C7.875 11.75 7.875 12.875 7.875 14C7.875 15.125 7.875 16.25 7.9875 17.375ZM16.65 17.375H10.2375C10.125 16.3625 10.0125 15.2375 10.0125 14C10.0125 12.7625 10.125 11.6375 10.2375 10.625H16.65C16.7625 11.6375 16.875 12.7625 16.875 14C16.875 15.2375 16.7625 16.3625 16.65 17.375ZM24.1875 17.375H18.9C19.0125 16.25 19.0125 15.125 19.0125 14C19.0125 12.875 19.0125 11.75 18.9 10.625H24.1875C24.525 11.6375 24.75 12.875 24.75 14C24.75 15.125 24.525 16.3625 24.1875 17.375ZM8.325 8.375H3.7125C5.0625 6.0125 7.3125 4.2125 9.9 3.3125C9.225 4.6625 8.6625 6.4625 8.325 8.375ZM16.3125 8.375H10.575C11.25 4.8875 12.4875 2.75 13.3875 2.75C14.2875 2.75 15.6375 4.8875 16.3125 8.375ZM23.2875 8.375H18.675C18.3375 6.4625 17.775 4.6625 17.1 3.3125C19.6875 4.2125 21.825 6.0125 23.2875 8.375Z" fill="black"/>
</g>
<defs>
<clipPath id="clip0_284_581">
<rect width="27" height="27" fill="white" transform="matrix(-1 0 0 1 27 0.5)"/>
</clipPath>
</defs>
</svg>
