<svg width="27" height="28" viewBox="0 0 27 28" fill="none" xmlns="http://www.w3.org/2000/svg">
<g clip-path="url(#clip0_284_540)">
<path d="M24.1607 21.8162C23.1625 20.0417 21.5275 18.0318 18.8657 16.8892C17.3434 17.9542 15.494 18.5812 13.5003 18.5812C11.5054 18.5812 9.65604 17.9542 8.13366 16.8892C5.47194 18.0318 3.83691 20.0417 2.83923 21.8162C1.51512 24.1698 2.55325 27.5001 4.84324 27.5001C7.13328 27.5001 13.5003 27.5001 13.5003 27.5001C13.5003 27.5001 19.8667 27.5001 22.1568 27.5001C24.4468 27.5001 25.4849 24.1698 24.1607 21.8162Z" fill="#222222"/>
<path d="M13.5003 16.3541C17.4102 16.3541 20.5789 13.1844 20.5789 9.27495V7.57912C20.5789 3.66976 17.4102 0.5 13.5003 0.5C9.58977 0.5 6.42059 3.66976 6.42059 7.57917V9.275C6.42059 13.1844 9.58982 16.3541 13.5003 16.3541Z" fill="#222222"/>
</g>
<defs>
<clipPath id="clip0_284_540">
<rect width="27" height="27" fill="white" transform="translate(0 0.5)"/>
</clipPath>
</defs>
</svg>
