<svg width="9" height="11" viewBox="0 0 9 11" fill="none" xmlns="http://www.w3.org/2000/svg">
<path d="M7.17765 9.24469H7.02694C6.99988 8.2191 6.69929 7.25792 6.17319 6.52394C5.83254 6.04869 5.42195 5.7017 4.97185 5.5C5.42197 5.2983 5.83254 4.95134 6.17319 4.47606C6.69926 3.74208 6.99988 2.7809 7.02694 1.75531H7.17765C7.66159 1.75531 8.05533 1.36159 8.05533 0.877655C8.05533 0.393721 7.66161 0 7.17765 0H0.877677C0.393743 0 0 0.393721 0 0.877655C0 1.36159 0.393721 1.75531 0.877677 1.75531H1.02839C1.05545 2.7809 1.35605 3.74208 1.88214 4.47606C2.22279 4.95131 2.63338 5.2983 3.08348 5.5C2.63336 5.7017 2.22279 6.04866 1.88214 6.52394C1.35607 7.25792 1.05545 8.2191 1.02839 9.24469H0.877677C0.393743 9.24469 0 9.63841 0 10.1223C0 10.6063 0.393743 11 0.877677 11H7.17768C7.66161 11 8.05535 10.6063 8.05535 10.1223C8.05535 9.63841 7.66161 9.24469 7.17765 9.24469ZM0.438247 0.877655C0.438247 0.635371 0.635392 0.438247 0.877677 0.438247H7.17768C7.41998 0.438247 7.61711 0.635371 7.61711 0.877655C7.61711 1.11994 7.41998 1.31706 7.17768 1.31706H0.877677C0.635392 1.31706 0.438247 1.11996 0.438247 0.877655ZM1.46679 1.75531H6.58856C6.53262 3.70483 5.40545 5.26626 4.02767 5.26626C2.64988 5.26626 1.52271 3.70483 1.46679 1.75531ZM4.02767 5.73374C5.40545 5.73374 6.53262 7.29517 6.58854 9.24469H1.46679C1.52271 7.29517 2.64988 5.73374 4.02767 5.73374ZM7.17765 10.5618H0.877677C0.635371 10.5618 0.438247 10.3646 0.438247 10.1223C0.438247 9.88006 0.635371 9.68294 0.877677 9.68294H7.17768C7.41998 9.68294 7.61711 9.88006 7.61711 10.1223C7.61711 10.3646 7.41996 10.5618 7.17765 10.5618Z" fill="white"/>
</svg>
